# MagicaVoxel @ Ephtracy

# group
o Back Sail

# material
mtllib Main Ship-1-Back Sail.mtl
usemtl palette

# normals
vn 0 0 1
vn 0 0 -1
vn 1 0 0
vn -1 0 0
vn 0 -1 0
vn 0 1 0

# texcoords
vt 0.220703 0.5
vt 0.224609 0.5

# verts
v 2.6 6.6 -3.7
v -2.6 6.6 -3.7
v 2.6 7 -3.7
v -2.6 7 -3.7
v 2.8 6.2 -3.9
v -2.8 6.2 -3.9
v 2.8 6.6 -3.9
v 2.6 6.6 -3.9
v -2.6 6.6 -3.9
v -2.8 6.6 -3.9
v 2.4 7 -3.9
v -2.4 7 -3.9
v 2.4 7.4 -3.9
v -2.4 7.4 -3.9
v 2.6 5.8 -4.1
v -2.6 5.8 -4.1
v 2.6 6.2 -4.1
v -2.6 6.2 -4.1
v 2.2 7.4 -4.1
v -2.2 7.4 -4.1
v 2.2 7.8 -4.1
v -2.2 7.8 -4.1
v 1.2 9.6 -4.1
v -1.2 9.6 -4.1
v 1.2 10 -4.1
v -1.2 10 -4.1
v 2.4 5.4 -4.3
v -2.4 5.4 -4.3
v 2.4 5.8 -4.3
v -2.4 5.8 -4.3
v 2 7.8 -4.3
v -2 7.8 -4.3
v 2 8.2 -4.3
v -2 8.2 -4.3
v 1.4 9.2 -4.3
v -1.4 9.2 -4.3
v 1.4 9.6 -4.3
v 1.2 9.6 -4.3
v -1.2 9.6 -4.3
v -1.4 9.6 -4.3
v 1 10 -4.3
v -1 10 -4.3
v 1 10.4 -4.3
v -1 10.4 -4.3
v 2.2 5.2 -4.5
v -2.2 5.2 -4.5
v 2.2 5.4 -4.5
v -2.2 5.4 -4.5
v 1.8 8.2 -4.5
v -1.8 8.2 -4.5
v 1.8 8.6 -4.5
v -1.8 8.6 -4.5
v 1.6 9 -4.5
v -1.6 9 -4.5
v 1.6 9.2 -4.5
v 1.4 9.2 -4.5
v -1.4 9.2 -4.5
v -1.6 9.2 -4.5
v 0.8 10.4 -4.5
v -0.8 10.4 -4.5
v 0.8 10.6 -4.5
v -0.8 10.6 -4.5
v 2.6 6.6 -3.9
v -2.6 6.6 -3.9
v 2.6 7 -3.9
v 2.4 7 -3.9
v -2.4 7 -3.9
v -2.6 7 -3.9
v 2.8 6.2 -4.1
v 2.6 6.2 -4.1
v -2.6 6.2 -4.1
v -2.8 6.2 -4.1
v 2.8 6.6 -4.1
v -2.8 6.6 -4.1
v 2.4 7 -4.1
v -2.4 7 -4.1
v 2.4 7.4 -4.1
v 2.2 7.4 -4.1
v -2.2 7.4 -4.1
v -2.4 7.4 -4.1
v 2.6 5.8 -4.3
v 2.4 5.8 -4.3
v -2.4 5.8 -4.3
v -2.6 5.8 -4.3
v 2.6 6.2 -4.3
v -2.6 6.2 -4.3
v 2.2 7.4 -4.3
v -2.2 7.4 -4.3
v 2.2 7.8 -4.3
v 2 7.8 -4.3
v -2 7.8 -4.3
v -2.2 7.8 -4.3
v 1.2 9.6 -4.3
v -1.2 9.6 -4.3
v 1.2 10 -4.3
v 1 10 -4.3
v -1 10 -4.3
v -1.2 10 -4.3
v 2.4 5.4 -4.5
v 2.2 5.4 -4.5
v -2.2 5.4 -4.5
v -2.4 5.4 -4.5
v 2.4 5.8 -4.5
v -2.4 5.8 -4.5
v 2 7.8 -4.5
v -2 7.8 -4.5
v 2 8.2 -4.5
v 1.8 8.2 -4.5
v -1.8 8.2 -4.5
v -2 8.2 -4.5
v 1.4 9.2 -4.5
v -1.4 9.2 -4.5
v 1.4 9.6 -4.5
v -1.4 9.6 -4.5
v 1 10 -4.5
v -1 10 -4.5
v 1 10.4 -4.5
v 0.8 10.4 -4.5
v -0.8 10.4 -4.5
v -1 10.4 -4.5
v 2.2 5.2 -4.7
v -2.2 5.2 -4.7
v 2.2 5.4 -4.7
v -2.2 5.4 -4.7
v 1.8 8.2 -4.7
v -1.8 8.2 -4.7
v 1.8 8.6 -4.7
v -1.8 8.6 -4.7
v 1.6 9 -4.7
v -1.6 9 -4.7
v 1.6 9.2 -4.7
v -1.6 9.2 -4.7
v 0.8 10.4 -4.7
v -0.8 10.4 -4.7
v 0.8 10.6 -4.7
v -0.8 10.6 -4.7
v 2.8 6.2 -3.9
v 2.8 6.6 -3.9
v 2.8 6.2 -4.1
v 2.8 6.6 -4.1
v 2.6 6.6 -3.7
v 2.6 7 -3.7
v 2.6 6.6 -3.9
v 2.6 7 -3.9
v 2.6 5.8 -4.1
v 2.6 6.2 -4.1
v 2.6 5.8 -4.3
v 2.6 6.2 -4.3
v 2.4 7 -3.9
v 2.4 7.4 -3.9
v 2.4 7 -4.1
v 2.4 7.4 -4.1
v 2.4 5.4 -4.3
v 2.4 5.8 -4.3
v 2.4 5.4 -4.5
v 2.4 5.8 -4.5
v 2.2 7.4 -4.1
v 2.2 7.8 -4.1
v 2.2 7.4 -4.3
v 2.2 7.8 -4.3
v 2.2 5.2 -4.5
v 2.2 5.4 -4.5
v 2.2 5.2 -4.7
v 2.2 5.4 -4.7
v 2 7.8 -4.3
v 2 8.2 -4.3
v 2 7.8 -4.5
v 2 8.2 -4.5
v 1.8 8.2 -4.5
v 1.8 8.6 -4.5
v 1.8 8.2 -4.7
v 1.8 8.6 -4.7
v 1.6 9 -4.5
v 1.6 9.2 -4.5
v 1.6 9 -4.7
v 1.6 9.2 -4.7
v 1.4 9.2 -4.3
v 1.4 9.6 -4.3
v 1.4 9.2 -4.5
v 1.4 9.6 -4.5
v 1.2 9.6 -4.1
v 1.2 10 -4.1
v 1.2 9.6 -4.3
v 1.2 10 -4.3
v 1 10 -4.3
v 1 10.4 -4.3
v 1 10 -4.5
v 1 10.4 -4.5
v 0.8 10.4 -4.5
v 0.8 10.6 -4.5
v 0.8 10.4 -4.7
v 0.8 10.6 -4.7
v -0.8 10.4 -4.5
v -0.8 10.6 -4.5
v -0.8 10.4 -4.7
v -0.8 10.6 -4.7
v -1 10 -4.3
v -1 10.4 -4.3
v -1 10 -4.5
v -1 10.4 -4.5
v -1.2 9.6 -4.1
v -1.2 10 -4.1
v -1.2 9.6 -4.3
v -1.2 10 -4.3
v -1.4 9.2 -4.3
v -1.4 9.6 -4.3
v -1.4 9.2 -4.5
v -1.4 9.6 -4.5
v -1.6 9 -4.5
v -1.6 9.2 -4.5
v -1.6 9 -4.7
v -1.6 9.2 -4.7
v -1.8 8.2 -4.5
v -1.8 8.6 -4.5
v -1.8 8.2 -4.7
v -1.8 8.6 -4.7
v -2 7.8 -4.3
v -2 8.2 -4.3
v -2 7.8 -4.5
v -2 8.2 -4.5
v -2.2 7.4 -4.1
v -2.2 7.8 -4.1
v -2.2 7.4 -4.3
v -2.2 7.8 -4.3
v -2.2 5.2 -4.5
v -2.2 5.4 -4.5
v -2.2 5.2 -4.7
v -2.2 5.4 -4.7
v -2.4 7 -3.9
v -2.4 7.4 -3.9
v -2.4 7 -4.1
v -2.4 7.4 -4.1
v -2.4 5.4 -4.3
v -2.4 5.8 -4.3
v -2.4 5.4 -4.5
v -2.4 5.8 -4.5
v -2.6 6.6 -3.7
v -2.6 7 -3.7
v -2.6 6.6 -3.9
v -2.6 7 -3.9
v -2.6 5.8 -4.1
v -2.6 6.2 -4.1
v -2.6 5.8 -4.3
v -2.6 6.2 -4.3
v -2.8 6.2 -3.9
v -2.8 6.6 -3.9
v -2.8 6.2 -4.1
v -2.8 6.6 -4.1
v 2.2 5.2 -4.5
v 2.2 5.2 -4.7
v -2.2 5.2 -4.5
v -2.2 5.2 -4.7
v 2.4 5.4 -4.3
v 2.4 5.4 -4.5
v 2.2 5.4 -4.5
v -2.2 5.4 -4.5
v -2.4 5.4 -4.3
v -2.4 5.4 -4.5
v 2.6 5.8 -4.1
v 2.6 5.8 -4.3
v 2.4 5.8 -4.3
v -2.4 5.8 -4.3
v -2.6 5.8 -4.1
v -2.6 5.8 -4.3
v 2.8 6.2 -3.9
v 2.8 6.2 -4.1
v 2.6 6.2 -4.1
v -2.6 6.2 -4.1
v -2.8 6.2 -3.9
v -2.8 6.2 -4.1
v 2.6 6.6 -3.7
v 2.6 6.6 -3.9
v -2.6 6.6 -3.7
v -2.6 6.6 -3.9
v 2.4 7 -3.9
v 2.4 7 -4.1
v -2.4 7 -3.9
v -2.4 7 -4.1
v 2.2 7.4 -4.1
v 2.2 7.4 -4.3
v -2.2 7.4 -4.1
v -2.2 7.4 -4.3
v 2 7.8 -4.3
v 2 7.8 -4.5
v -2 7.8 -4.3
v -2 7.8 -4.5
v 1.8 8.2 -4.5
v 1.8 8.2 -4.7
v -1.8 8.2 -4.5
v -1.8 8.2 -4.7
v 1.6 9 -4.5
v 1.6 9 -4.7
v -1.6 9 -4.5
v -1.6 9 -4.7
v 1.4 9.2 -4.3
v 1.4 9.2 -4.5
v -1.4 9.2 -4.3
v -1.4 9.2 -4.5
v 1.2 9.6 -4.1
v 1.2 9.6 -4.3
v -1.2 9.6 -4.1
v -1.2 9.6 -4.3
v 1 10 -4.3
v 1 10 -4.5
v -1 10 -4.3
v -1 10 -4.5
v 0.8 10.4 -4.5
v 0.8 10.4 -4.7
v -0.8 10.4 -4.5
v -0.8 10.4 -4.7
v 2.2 5.4 -4.5
v 2.2 5.4 -4.7
v -2.2 5.4 -4.5
v -2.2 5.4 -4.7
v 2.4 5.8 -4.3
v 2.4 5.8 -4.5
v -2.4 5.8 -4.3
v -2.4 5.8 -4.5
v 2.6 6.2 -4.1
v 2.6 6.2 -4.3
v -2.6 6.2 -4.1
v -2.6 6.2 -4.3
v 2.8 6.6 -3.9
v 2.8 6.6 -4.1
v 2.6 6.6 -3.9
v -2.6 6.6 -3.9
v -2.8 6.6 -3.9
v -2.8 6.6 -4.1
v 2.6 7 -3.7
v 2.6 7 -3.9
v 2.4 7 -3.9
v -2.4 7 -3.9
v -2.6 7 -3.7
v -2.6 7 -3.9
v 2.4 7.4 -3.9
v 2.4 7.4 -4.1
v 2.2 7.4 -4.1
v -2.2 7.4 -4.1
v -2.4 7.4 -3.9
v -2.4 7.4 -4.1
v 2.2 7.8 -4.1
v 2.2 7.8 -4.3
v 2 7.8 -4.3
v -2 7.8 -4.3
v -2.2 7.8 -4.1
v -2.2 7.8 -4.3
v 2 8.2 -4.3
v 2 8.2 -4.5
v 1.8 8.2 -4.5
v -1.8 8.2 -4.5
v -2 8.2 -4.3
v -2 8.2 -4.5
v 1.8 8.6 -4.5
v 1.8 8.6 -4.7
v -1.8 8.6 -4.5
v -1.8 8.6 -4.7
v 1.6 9.2 -4.5
v 1.6 9.2 -4.7
v 1.4 9.2 -4.5
v -1.4 9.2 -4.5
v -1.6 9.2 -4.5
v -1.6 9.2 -4.7
v 1.4 9.6 -4.3
v 1.4 9.6 -4.5
v 1.2 9.6 -4.3
v -1.2 9.6 -4.3
v -1.4 9.6 -4.3
v -1.4 9.6 -4.5
v 1.2 10 -4.1
v 1.2 10 -4.3
v 1 10 -4.3
v -1 10 -4.3
v -1.2 10 -4.1
v -1.2 10 -4.3
v 1 10.4 -4.3
v 1 10.4 -4.5
v 0.8 10.4 -4.5
v -0.8 10.4 -4.5
v -1 10.4 -4.3
v -1 10.4 -4.5
v 0.8 10.6 -4.5
v 0.8 10.6 -4.7
v -0.8 10.6 -4.5
v -0.8 10.6 -4.7

# faces
f 3/1/1 2/1/1 1/1/1
f 4/1/1 2/1/1 3/1/1
f 7/2/1 6/2/1 5/2/1
f 8/2/1 6/2/1 7/2/1
f 9/2/1 6/2/1 8/2/1
f 10/2/1 6/2/1 9/2/1
f 13/1/1 12/1/1 11/1/1
f 14/1/1 12/1/1 13/1/1
f 17/2/1 16/2/1 15/2/1
f 18/2/1 16/2/1 17/2/1
f 21/1/1 20/1/1 19/1/1
f 22/1/1 20/1/1 21/1/1
f 25/1/1 24/1/1 23/1/1
f 26/1/1 24/1/1 25/1/1
f 29/2/1 28/2/1 27/2/1
f 30/2/1 28/2/1 29/2/1
f 33/1/1 32/1/1 31/1/1
f 34/1/1 32/1/1 33/1/1
f 37/2/1 36/2/1 35/2/1
f 38/2/1 36/2/1 37/2/1
f 39/2/1 36/2/1 38/2/1
f 40/2/1 36/2/1 39/2/1
f 43/1/1 42/1/1 41/1/1
f 44/1/1 42/1/1 43/1/1
f 47/2/1 46/2/1 45/2/1
f 48/2/1 46/2/1 47/2/1
f 51/1/1 50/1/1 49/1/1
f 52/1/1 50/1/1 51/1/1
f 55/2/1 54/2/1 53/2/1
f 56/2/1 54/2/1 55/2/1
f 57/2/1 54/2/1 56/2/1
f 58/2/1 54/2/1 57/2/1
f 61/1/1 60/1/1 59/1/1
f 62/1/1 60/1/1 61/1/1
f 63/1/2 64/1/2 65/1/2
f 65/1/2 64/1/2 66/1/2
f 66/1/2 64/1/2 67/1/2
f 67/1/2 64/1/2 68/1/2
f 69/2/2 70/2/2 73/2/2
f 71/2/2 72/2/2 73/2/2
f 70/2/2 71/2/2 73/2/2
f 73/2/2 72/2/2 74/2/2
f 75/1/2 76/1/2 77/1/2
f 77/1/2 76/1/2 78/1/2
f 78/1/2 76/1/2 79/1/2
f 79/1/2 76/1/2 80/1/2
f 81/2/2 82/2/2 85/2/2
f 83/2/2 84/2/2 85/2/2
f 82/2/2 83/2/2 85/2/2
f 85/2/2 84/2/2 86/2/2
f 87/1/2 88/1/2 89/1/2
f 89/1/2 88/1/2 90/1/2
f 90/1/2 88/1/2 91/1/2
f 91/1/2 88/1/2 92/1/2
f 93/1/2 94/1/2 95/1/2
f 95/1/2 94/1/2 96/1/2
f 96/1/2 94/1/2 97/1/2
f 97/1/2 94/1/2 98/1/2
f 99/2/2 100/2/2 103/2/2
f 101/2/2 102/2/2 103/2/2
f 100/2/2 101/2/2 103/2/2
f 103/2/2 102/2/2 104/2/2
f 105/1/2 106/1/2 107/1/2
f 107/1/2 106/1/2 108/1/2
f 108/1/2 106/1/2 109/1/2
f 109/1/2 106/1/2 110/1/2
f 111/2/2 112/2/2 113/2/2
f 113/2/2 112/2/2 114/2/2
f 115/1/2 116/1/2 117/1/2
f 117/1/2 116/1/2 118/1/2
f 118/1/2 116/1/2 119/1/2
f 119/1/2 116/1/2 120/1/2
f 121/2/2 122/2/2 123/2/2
f 123/2/2 122/2/2 124/2/2
f 125/1/2 126/1/2 127/1/2
f 127/1/2 126/1/2 128/1/2
f 129/2/2 130/2/2 131/2/2
f 131/2/2 130/2/2 132/2/2
f 133/1/2 134/1/2 135/1/2
f 135/1/2 134/1/2 136/1/2
f 139/2/3 138/2/3 137/2/3
f 140/2/3 138/2/3 139/2/3
f 143/1/3 142/1/3 141/1/3
f 144/1/3 142/1/3 143/1/3
f 147/2/3 146/2/3 145/2/3
f 148/2/3 146/2/3 147/2/3
f 151/1/3 150/1/3 149/1/3
f 152/1/3 150/1/3 151/1/3
f 155/2/3 154/2/3 153/2/3
f 156/2/3 154/2/3 155/2/3
f 159/1/3 158/1/3 157/1/3
f 160/1/3 158/1/3 159/1/3
f 163/2/3 162/2/3 161/2/3
f 164/2/3 162/2/3 163/2/3
f 167/1/3 166/1/3 165/1/3
f 168/1/3 166/1/3 167/1/3
f 171/1/3 170/1/3 169/1/3
f 172/1/3 170/1/3 171/1/3
f 175/2/3 174/2/3 173/2/3
f 176/2/3 174/2/3 175/2/3
f 179/2/3 178/2/3 177/2/3
f 180/2/3 178/2/3 179/2/3
f 183/1/3 182/1/3 181/1/3
f 184/1/3 182/1/3 183/1/3
f 187/1/3 186/1/3 185/1/3
f 188/1/3 186/1/3 187/1/3
f 191/1/3 190/1/3 189/1/3
f 192/1/3 190/1/3 191/1/3
f 193/1/4 194/1/4 195/1/4
f 195/1/4 194/1/4 196/1/4
f 197/1/4 198/1/4 199/1/4
f 199/1/4 198/1/4 200/1/4
f 201/1/4 202/1/4 203/1/4
f 203/1/4 202/1/4 204/1/4
f 205/2/4 206/2/4 207/2/4
f 207/2/4 206/2/4 208/2/4
f 209/2/4 210/2/4 211/2/4
f 211/2/4 210/2/4 212/2/4
f 213/1/4 214/1/4 215/1/4
f 215/1/4 214/1/4 216/1/4
f 217/1/4 218/1/4 219/1/4
f 219/1/4 218/1/4 220/1/4
f 221/1/4 222/1/4 223/1/4
f 223/1/4 222/1/4 224/1/4
f 225/2/4 226/2/4 227/2/4
f 227/2/4 226/2/4 228/2/4
f 229/1/4 230/1/4 231/1/4
f 231/1/4 230/1/4 232/1/4
f 233/2/4 234/2/4 235/2/4
f 235/2/4 234/2/4 236/2/4
f 237/1/4 238/1/4 239/1/4
f 239/1/4 238/1/4 240/1/4
f 241/2/4 242/2/4 243/2/4
f 243/2/4 242/2/4 244/2/4
f 245/2/4 246/2/4 247/2/4
f 247/2/4 246/2/4 248/2/4
f 251/2/5 250/2/5 249/2/5
f 252/2/5 250/2/5 251/2/5
f 255/2/5 254/2/5 253/2/5
f 256/2/5 255/2/5 253/2/5
f 257/2/5 256/2/5 253/2/5
f 258/2/5 256/2/5 257/2/5
f 261/2/5 260/2/5 259/2/5
f 262/2/5 261/2/5 259/2/5
f 263/2/5 262/2/5 259/2/5
f 264/2/5 262/2/5 263/2/5
f 267/2/5 266/2/5 265/2/5
f 268/2/5 267/2/5 265/2/5
f 269/2/5 268/2/5 265/2/5
f 270/2/5 268/2/5 269/2/5
f 273/1/5 272/1/5 271/1/5
f 274/1/5 272/1/5 273/1/5
f 277/1/5 276/1/5 275/1/5
f 278/1/5 276/1/5 277/1/5
f 281/1/5 280/1/5 279/1/5
f 282/1/5 280/1/5 281/1/5
f 285/1/5 284/1/5 283/1/5
f 286/1/5 284/1/5 285/1/5
f 289/1/5 288/1/5 287/1/5
f 290/1/5 288/1/5 289/1/5
f 293/2/5 292/2/5 291/2/5
f 294/2/5 292/2/5 293/2/5
f 297/2/5 296/2/5 295/2/5
f 298/2/5 296/2/5 297/2/5
f 301/1/5 300/1/5 299/1/5
f 302/1/5 300/1/5 301/1/5
f 305/1/5 304/1/5 303/1/5
f 306/1/5 304/1/5 305/1/5
f 309/1/5 308/1/5 307/1/5
f 310/1/5 308/1/5 309/1/5
f 311/2/6 312/2/6 313/2/6
f 313/2/6 312/2/6 314/2/6
f 315/2/6 316/2/6 317/2/6
f 317/2/6 316/2/6 318/2/6
f 319/2/6 320/2/6 321/2/6
f 321/2/6 320/2/6 322/2/6
f 323/2/6 324/2/6 325/2/6
f 325/2/6 324/2/6 326/2/6
f 326/2/6 324/2/6 327/2/6
f 327/2/6 324/2/6 328/2/6
f 329/1/6 330/1/6 331/1/6
f 329/1/6 331/1/6 332/1/6
f 329/1/6 332/1/6 333/1/6
f 333/1/6 332/1/6 334/1/6
f 335/1/6 336/1/6 337/1/6
f 335/1/6 337/1/6 338/1/6
f 335/1/6 338/1/6 339/1/6
f 339/1/6 338/1/6 340/1/6
f 341/1/6 342/1/6 343/1/6
f 341/1/6 343/1/6 344/1/6
f 341/1/6 344/1/6 345/1/6
f 345/1/6 344/1/6 346/1/6
f 347/1/6 348/1/6 349/1/6
f 347/1/6 349/1/6 350/1/6
f 347/1/6 350/1/6 351/1/6
f 351/1/6 350/1/6 352/1/6
f 353/1/6 354/1/6 355/1/6
f 355/1/6 354/1/6 356/1/6
f 357/2/6 358/2/6 359/2/6
f 359/2/6 358/2/6 360/2/6
f 360/2/6 358/2/6 361/2/6
f 361/2/6 358/2/6 362/2/6
f 363/2/6 364/2/6 365/2/6
f 365/2/6 364/2/6 366/2/6
f 366/2/6 364/2/6 367/2/6
f 367/2/6 364/2/6 368/2/6
f 369/1/6 370/1/6 371/1/6
f 369/1/6 371/1/6 372/1/6
f 369/1/6 372/1/6 373/1/6
f 373/1/6 372/1/6 374/1/6
f 375/1/6 376/1/6 377/1/6
f 375/1/6 377/1/6 378/1/6
f 375/1/6 378/1/6 379/1/6
f 379/1/6 378/1/6 380/1/6
f 381/1/6 382/1/6 383/1/6
f 383/1/6 382/1/6 384/1/6
